HIERARCHY
ROOT Hips
{
    OFFSET 0.000000 0.000000 0.000000
    CHANNELS 6 Xposition Yposition Zposition Zrotation Xrotation Yrotation
    JOINT Spine
    {
        OFFSET -0.000000 7.979263 0.000000
        CHANNELS 3 Zrotation Xrotation Yrotation
        JOINT Spine1
        {
            OFFSET -0.000000 24.719021 0.000000
            CHANNELS 3 Zrotation Xrotation Yrotation
            JOINT Neck
            {
                OFFSET -0.000000 24.617504 2.237955
                CHANNELS 3 Zrotation Xrotation Yrotation
                JOINT Head
                {
                    OFFSET -0.000000 13.623132 -1.946162
                    CHANNELS 3 Zrotation Xrotation Yrotation
                    End Site
                    {
                        OFFSET -0.000000 24.327021 0.000000
                    }
                }
            }
            JOINT LeftShoulder
            {
                OFFSET 3.885773 23.018444 -0.302444
                CHANNELS 3 Zrotation Xrotation Yrotation
                JOINT LeftArm
                {
                    OFFSET 10.447750 0.000000 0.000000
                    CHANNELS 3 Zrotation Xrotation Yrotation
                    JOINT LeftForeArm
                    {
                        OFFSET 29.090096 0.000000 0.000000
                        CHANNELS 3 Zrotation Xrotation Yrotation
                        JOINT LeftHand
                        {
                            OFFSET 28.893339 0.000000 0.000000
                            CHANNELS 3 Zrotation Xrotation Yrotation
                            End Site
                            {
                                OFFSET 14.596213 0.000000 0.000000
                            }
                        }
                    }
                }
            }
            JOINT RightShoulder
            {
                OFFSET -3.864586 23.018444 -0.302444
                CHANNELS 3 Zrotation Xrotation Yrotation
                JOINT RightArm
                {
                    OFFSET -10.447750 0.000000 0.000000
                    CHANNELS 3 Zrotation Xrotation Yrotation
                    JOINT RightForeArm
                    {
                        OFFSET -29.090096 0.000000 0.000000
                        CHANNELS 3 Zrotation Xrotation Yrotation
                        JOINT RightHand
                        {
                            OFFSET -28.893339 0.000000 0.000000
                            CHANNELS 3 Zrotation Xrotation Yrotation
                            End Site
                            {
                                OFFSET -14.596213 0.000000 0.000000
                            }
                        }
                    }
                }
            }
        }
    }
    JOINT LeftUpLeg
    {
        OFFSET 9.730808 0.000000 0.000000
        CHANNELS 3 Zrotation Xrotation Yrotation
        JOINT LeftLeg
        {
            OFFSET -0.000000 -34.800129 0.000000
            CHANNELS 3 Zrotation Xrotation Yrotation
            JOINT LeftFoot
            {
                OFFSET -0.000000 -44.597416 0.000000
                CHANNELS 3 Zrotation Xrotation Yrotation
                JOINT LeftToeBase
                {
                    OFFSET -0.000000 -6.325025 14.596213
                    CHANNELS 3 Zrotation Xrotation Yrotation
                    End Site
                    {
                        OFFSET -0.000000 0.000000 3.892323
                    }
                }
            }
        }
    }
    JOINT RightUpLeg
    {
        OFFSET -9.730808 0.000000 0.000000
        CHANNELS 3 Zrotation Xrotation Yrotation
        JOINT RightLeg
        {
            OFFSET -0.000000 -34.800129 0.000000
            CHANNELS 3 Zrotation Xrotation Yrotation
            JOINT RightFoot
            {
                OFFSET -0.000000 -44.597416 0.000000
                CHANNELS 3 Zrotation Xrotation Yrotation
                JOINT RightToeBase
                {
                    OFFSET -0.000000 -6.325025 14.596213
                    CHANNELS 3 Zrotation Xrotation Yrotation
                    End Site
                    {
                        OFFSET -0.000000 0.000000 3.892323
                    }
                }
            }
        }
    }
}
MOTION
Frames:    7
Frame Time:    0.008333
-94.986656    87.562355    44.229706    -7.503408    -1.041167    95.821678    -1.667508    -14.274237    -0.384639    2.494963    -3.122847    -0.107850    7.552761    24.150465    5.436704    -8.537052    -9.308112    4.343317    9.490784    3.179922    -12.314164    -73.892563    37.308266    1.918074    3.021173    -9.764314    -12.483051    -6.206081    -9.269230    -3.162870    -7.857733    2.847028    -5.898358    69.415085    40.962051    -2.681188    2.613247    -13.050995    11.065725    2.432900    -13.247396    2.425146    0.659755    -6.881020    -6.357068    -0.314401    2.737008    3.948185    -5.184125    1.958053    9.067467    0.000000    0.000000    0.000000    0.987907    -2.078079    -7.908922    1.230852    -0.457380    -8.133749    1.159961    0.341734    -5.474210    0.000000    0.000000    0.000000    
-94.964767    87.562469    44.232594    -7.490798    -1.039025    95.809128    -1.708598    -14.275524    -0.393116    2.554533    -3.175857    -0.108528    7.611754    24.286308    5.432385    -8.649415    -9.305877    4.328823    9.527777    3.146209    -12.480296    -73.126350    36.436504    2.163480    2.871668    -9.475108    -11.932622    -6.100109    -9.002712    -3.347526    -7.892249    2.836303    -5.842678    68.439850    40.062561    -2.563331    2.559750    -12.477491    10.453384    2.670358    -12.642848    2.779657    0.662151    -6.838753    -6.316725    -0.308924    2.714836    3.981156    -5.168386    1.958577    9.004498    0.000000    0.000000    0.000000    0.993729    -2.052263    -7.935430    1.228871    -0.457458    -8.148598    1.156238    0.325972    -5.419546    0.000000    0.000000    0.000000    
-94.950722    87.562416    44.235504    -7.492274    -1.039171    95.810760    -1.735018    -14.268517    -0.423243    2.609711    -3.259922    -0.131982    7.581860    24.452782    5.453696    -8.691565    -9.336099    4.349679    9.493032    3.132567    -12.623845    -72.227730    35.452499    2.387542    2.636415    -9.049521    -11.437277    -5.879993    -8.619826    -3.324360    -7.952336    2.826850    -5.758303    67.287903    38.869026    -2.326887    2.869541    -11.735758    9.884779    1.876258    -11.938284    2.520175    0.671789    -6.820524    -6.338938    -0.317882    2.697150    3.987519    -5.193322    1.947956    9.020077    0.000000    0.000000    0.000000    0.993133    -2.030845    -7.889815    1.232062    -0.482992    -8.176265    1.158024    0.332636    -5.431006    0.000000    0.000000    0.000000    
-94.931290    87.563507    44.241531    -7.490156    -1.050580    95.799728    -1.777381    -14.276407    -0.450964    2.716476    -3.323045    -0.149759    7.537077    24.625061    5.466192    -8.740032    -9.379334    4.358082    9.433510    3.108836    -12.766644    -71.265320    34.413425    2.576452    2.330406    -8.763331    -10.851966    -5.583632    -8.380391    -3.400580    -8.033426    2.808303    -5.655906    66.336235    38.077927    -2.272993    2.947474    -11.324137    9.408021    1.216926    -11.536816    2.409865    0.692517    -6.778474    -6.414829    -0.320668    2.647279    4.129434    -5.183616    1.960115    8.960598    0.000000    0.000000    0.000000    1.011414    -2.013638    -7.847102    1.228896    -0.485018    -8.196584    1.161016    0.332773    -5.441461    0.000000    0.000000    0.000000    
-94.910721    87.565361    44.241543    -7.483672    -1.042692    95.789429    -1.981421    -14.212057    -0.383740    2.983897    -3.516172    -0.045407    7.763414    24.788254    5.312670    -8.961611    -9.331368    4.183411    9.541549    3.148535    -13.262115    -70.443741    32.829754    2.630486    1.937049    -8.271215    -10.187736    -5.033161    -7.962241    -3.171154    -8.097565    2.903827    -5.742904    65.283913    37.274513    -2.246152    2.886889    -10.642326    8.812396    0.990635    -10.839430    2.528450    0.680715    -6.760759    -6.318834    -0.307286    2.657905    4.031368    -5.207260    1.946478    8.984825    0.000000    0.000000    0.000000    1.004721    -1.987502    -7.839970    1.233469    -0.492022    -8.199888    1.162843    0.325313    -5.434999    0.000000    0.000000    0.000000    
-94.891594    87.564758    44.242760    -7.472158    -1.041515    95.772041    -1.896031    -14.296838    -0.458991    2.896626    -3.398228    -0.135555    7.590205    24.835592    5.433413    -8.861607    -9.320722    4.321484    9.495994    3.031669    -13.173130    -69.442078    31.923054    2.973868    1.696837    -8.024293    -9.810030    -4.821210    -7.754839    -3.001733    -8.163124    2.758147    -5.503424    64.292725    36.547588    -2.169178    2.894116    -10.277279    8.145830    1.095417    -10.450404    3.149868    0.684908    -6.740069    -6.260966    -0.307393    2.677987    3.878794    -5.193129    1.906445    9.092788    0.000000    0.000000    0.000000    0.994047    -1.970658    -7.815724    1.252743    -0.477279    -8.177068    1.168726    0.310254    -5.460475    0.000000    0.000000    0.000000    
-94.868835    87.564415    44.246521    -7.443921    -1.042812    95.746170    -1.921427    -14.265043    -0.459864    2.948221    -3.475260    -0.130115    7.578277    24.861847    5.445278    -8.821004    -9.142121    4.357181    9.536937    2.995483    -13.339889    -68.744461    31.242636    3.393255    1.778544    -8.115080    -9.357233    -4.928755    -7.841531    -3.035378    -8.199576    2.759584    -5.411060    63.227310    35.647251    -2.090866    3.235048    -10.384118    7.842164    -0.485700    -10.611416    2.211801    0.695465    -6.688444    -6.253718    -0.306139    2.666758    3.942380    -5.177209    1.900831    9.039066    0.000000    0.000000    0.000000    1.009549    -1.927010    -7.780854    1.245973    -0.484076    -8.195084    1.155733    0.318802    -5.460882    0.000000    0.000000    0.000000    
